<svg width="16" height="16" viewBox="0 0 16 16" fill="none" xmlns="http://www.w3.org/2000/svg">
<path d="M5.46875 8.84375C5.30188 8.84375 5.13874 8.79426 4.99999 8.70155C4.86124 8.60884 4.75309 8.47706 4.68923 8.32289C4.62537 8.16871 4.60866 7.99906 4.64122 7.83539C4.67377 7.67172 4.75413 7.52138 4.87213 7.40338C4.99013 7.28538 5.14047 7.20502 5.30415 7.17246C5.46782 7.13991 5.63747 7.15662 5.79164 7.22048C5.94582 7.28434 6.07759 7.39248 6.17031 7.53124C6.26302 7.66999 6.3125 7.83312 6.3125 8C6.3125 8.22378 6.22361 8.43839 6.06537 8.59662C5.90714 8.75486 5.69253 8.84375 5.46875 8.84375ZM10.5313 7.15625C10.3644 7.15625 10.2012 7.20573 10.0625 7.29845C9.92374 7.39116 9.81559 7.52294 9.75173 7.67711C9.68787 7.83129 9.67116 8.00094 9.70372 8.16461C9.73627 8.32828 9.81663 8.47862 9.93463 8.59662C10.0526 8.71462 10.203 8.79498 10.3666 8.82754C10.5303 8.86009 10.7 8.84338 10.8541 8.77952C11.0083 8.71566 11.1401 8.60752 11.2328 8.46876C11.3255 8.33001 11.375 8.16688 11.375 8C11.375 7.77622 11.2861 7.56161 11.1279 7.40338C10.9696 7.24514 10.755 7.15625 10.5313 7.15625ZM9.66852 10.3365C9.16753 10.6474 8.58963 10.8122 8 10.8122C7.41037 10.8122 6.83247 10.6474 6.33149 10.3365C6.20524 10.2569 6.05253 10.2306 5.90696 10.2636C5.76138 10.2966 5.63486 10.386 5.55524 10.5123C5.47561 10.6385 5.4494 10.7912 5.48236 10.9368C5.51533 11.0824 5.60477 11.2089 5.73102 11.2885C6.41175 11.7129 7.19784 11.9378 8 11.9378C8.80217 11.9378 9.58826 11.7129 10.269 11.2885C10.3952 11.2089 10.4847 11.0824 10.5176 10.9368C10.5506 10.7912 10.5244 10.6385 10.4448 10.5123C10.3651 10.386 10.2386 10.2966 10.093 10.2636C9.94747 10.2306 9.79477 10.2569 9.66852 10.3365ZM15.3125 8C15.3125 9.44628 14.8836 10.8601 14.0801 12.0626C13.2766 13.2651 12.1346 14.2024 10.7984 14.7559C9.46219 15.3093 7.99189 15.4541 6.57341 15.172C5.15492 14.8898 3.85196 14.1934 2.82928 13.1707C1.80661 12.148 1.11017 10.8451 0.828011 9.4266C0.545857 8.00811 0.690668 6.53781 1.24413 5.20163C1.7976 3.86544 2.73486 2.72339 3.9374 1.91988C5.13993 1.11637 6.55373 0.6875 8 0.6875C9.93877 0.689547 11.7975 1.46063 13.1685 2.83154C14.5394 4.20246 15.3105 6.06123 15.3125 8ZM14.1875 8C14.1855 6.40717 13.5702 4.8763 12.4692 3.72527C11.3681 2.57424 9.86609 1.8915 8.27493 1.81883C7.46 2.96422 7.4375 4.05406 7.4375 4.0625C7.4375 4.21168 7.49677 4.35476 7.60226 4.46025C7.70775 4.56574 7.85082 4.625 8 4.625C8.14919 4.625 8.29226 4.56574 8.39775 4.46025C8.50324 4.35476 8.5625 4.21168 8.5625 4.0625C8.5625 3.91332 8.62177 3.77024 8.72725 3.66475C8.83274 3.55926 8.97582 3.5 9.125 3.5C9.27419 3.5 9.41726 3.55926 9.52275 3.66475C9.62824 3.77024 9.6875 3.91332 9.6875 4.0625C9.6875 4.51005 9.50971 4.93928 9.19325 5.25574C8.87678 5.57221 8.44756 5.75 8 5.75C7.55245 5.75 7.12323 5.57221 6.80676 5.25574C6.49029 4.93928 6.3125 4.51005 6.3125 4.0625C6.3125 4.01117 6.32164 3.05703 6.90735 1.90883C5.74885 2.11668 4.67366 2.65064 3.80796 3.44805C2.94225 4.24547 2.32194 5.27327 2.01982 6.41083C1.7177 7.54839 1.7463 8.74852 2.10226 9.8704C2.45823 10.9923 3.12679 11.9894 4.02949 12.7446C4.9322 13.4999 6.0316 13.9821 7.19868 14.1345C8.36577 14.2869 9.55212 14.1033 10.6185 13.6052C11.6849 13.1071 12.5871 12.3152 13.2193 11.3224C13.8515 10.3295 14.1873 9.177 14.1875 8Z" fill="white"/>
</svg>
