<svg width="15.000000" height="16.000000" viewBox="0 0 15 16" fill="none" xmlns="http://www.w3.org/2000/svg" xmlns:xlink="http://www.w3.org/1999/xlink">
	<desc>
			Created with Pixso.
	</desc>
	<defs>
		<clipPath id="clip105_4152">
			<rect id="ic16_share" rx="0.000000" width="14.000000" height="15.000000" transform="translate(0.500000 0.500000)" fill="white" fill-opacity="0"/>
		</clipPath>
	</defs>
	<rect id="ic16_share" rx="0.000000" width="14.000000" height="15.000000" transform="translate(0.500000 0.500000)" fill="#FFFFFF" fill-opacity="0"/>
	<g clip-path="url(#clip105_4152)">
		<path id="Vector" d="M4.35 5.66L3.57 5.66C3.15 5.66 2.75 5.83 2.46 6.12C2.16 6.41 2 6.8 2 7.22L2 13.44C2 13.85 2.16 14.25 2.46 14.54C2.75 14.83 3.15 15 3.57 15L11.42 15C11.84 15 12.24 14.83 12.53 14.54C12.83 14.25 13 13.85 13 13.44L13 7.22C13 6.8 12.83 6.41 12.53 6.12C12.24 5.83 11.84 5.66 11.42 5.66L10.64 5.66M7.5 9.55L7.5 1M5.14 3.33L7.5 1L9.85 3.33" stroke="#000000" stroke-opacity="1.000000" stroke-width="1.000000" stroke-linejoin="round" stroke-linecap="round"/>
	</g>
</svg>
