<svg width="23" height="24" viewBox="0 0 23 24" fill="none" xmlns="http://www.w3.org/2000/svg">
<path d="M9 12.6667C9 13.7276 9.42143 14.745 10.1716 15.4951C10.9217 16.2453 11.9391 16.6667 13 16.6667C14.0609 16.6667 15.0783 16.2453 15.8284 15.4951C16.5786 14.745 17 13.7276 17 12.6667C17 11.6058 16.5786 10.5884 15.8284 9.83826C15.0783 9.08811 14.0609 8.66669 13 8.66669C11.9391 8.66669 10.9217 9.08811 10.1716 9.83826C9.42143 10.5884 9 11.6058 9 12.6667Z" stroke="black" stroke-width="3" stroke-linecap="round" stroke-linejoin="round"/>
<path d="M20.5428 20.2093L14.8855 25.8667C14.3855 26.3662 13.7076 26.6468 13.0008 26.6468C12.2941 26.6468 11.6162 26.3662 11.1162 25.8667L5.4575 20.2093C3.9658 18.7176 2.94995 16.8169 2.53842 14.7478C2.12689 12.6787 2.33815 10.534 3.14551 8.58498C3.95286 6.63593 5.32003 4.97006 7.07414 3.79802C8.82826 2.62597 10.8905 2.0004 13.0002 2.0004C15.1098 2.0004 17.1721 2.62597 18.9262 3.79802C20.6803 4.97006 22.0475 6.63593 22.8548 8.58498C23.6622 10.534 23.8734 12.6787 23.4619 14.7478C23.0504 16.8169 22.0345 18.7176 20.5428 20.2093Z" stroke="black" stroke-width="3" stroke-linecap="round" stroke-linejoin="round"/>
</svg>
