<svg width="25" height="24" viewBox="0 0 25 24" fill="none" xmlns="http://www.w3.org/2000/svg">
<path fill-rule="evenodd" clip-rule="evenodd" d="M12.8536 2.64645C12.6583 2.45118 12.3417 2.45118 12.1465 2.64645L3.14646 11.6464C3.00346 11.7894 2.96068 12.0045 3.03807 12.1913C3.11547 12.3782 3.29778 12.5 3.50001 12.5H5.00001V19C5.00001 19.663 5.26341 20.2989 5.73225 20.7678C6.20109 21.2366 6.83697 21.5 7.50001 21.5H9.50001H15.5H17.5C18.1631 21.5 18.7989 21.2366 19.2678 20.7678C19.7366 20.2989 20 19.663 20 19V12.5H21.5C21.7022 12.5 21.8846 12.3782 21.962 12.1913C22.0393 12.0045 21.9966 11.7894 21.8536 11.6464L12.8536 2.64645ZM16 20.5H17.5C17.8978 20.5 18.2794 20.342 18.5607 20.0607C18.842 19.7794 19 19.3978 19 19V12C19 11.7239 19.2239 11.5 19.5 11.5H20.2929L12.5 3.70711L4.70712 11.5H5.50001C5.77616 11.5 6.00001 11.7239 6.00001 12V19C6.00001 19.3978 6.15805 19.7794 6.43935 20.0607C6.72066 20.342 7.10219 20.5 7.50001 20.5H9.00001V15C9.00001 14.337 9.26341 13.7011 9.73225 13.2322C10.2011 12.7634 10.837 12.5 11.5 12.5H13.5C14.1631 12.5 14.7989 12.7634 15.2678 13.2322C15.7366 13.7011 16 14.337 16 15V20.5ZM10 20.5V15C10 14.6022 10.1581 14.2206 10.4394 13.9393C10.7207 13.658 11.1022 13.5 11.5 13.5H13.5C13.8978 13.5 14.2794 13.658 14.5607 13.9393C14.842 14.2206 15 14.6022 15 15V20.5H10Z" fill="black"/>
</svg>
