<svg width="16" height="13" viewBox="0 0 16 13" fill="none" xmlns="http://www.w3.org/2000/svg">
<path d="M13.6274 6.93297L8.0064 12.5L2.3854 6.93297C2.01465 6.57219 1.72261 6.13855 1.52768 5.65935C1.33274 5.18016 1.23914 4.6658 1.25276 4.14865C1.26639 3.63151 1.38694 3.12279 1.60683 2.65452C1.82672 2.18626 2.14118 1.76859 2.53042 1.42783C2.91965 1.08707 3.37523 0.830586 3.86846 0.674542C4.36168 0.518497 4.88188 0.466267 5.39628 0.521141C5.91069 0.576015 6.40816 0.736804 6.85737 0.993384C7.30658 1.24996 7.6978 1.59677 8.0064 2.01198C8.31633 1.59979 8.708 1.25601 9.1569 1.00215C9.6058 0.748295 10.1023 0.589828 10.6152 0.536669C11.1282 0.48351 11.6466 0.536803 12.138 0.693212C12.6295 0.84962 13.0833 1.10578 13.4712 1.44565C13.859 1.78553 14.1726 2.20181 14.3922 2.66843C14.6117 3.13505 14.7327 3.64198 14.7473 4.15748C14.762 4.67298 14.6701 5.18596 14.4774 5.66431C14.2847 6.14266 13.9953 6.57609 13.6274 6.93747" fill="#E93030"/>
<path d="M13.6274 6.93297L8.0064 12.5L2.3854 6.93297C2.01465 6.57219 1.72261 6.13855 1.52768 5.65935C1.33274 5.18016 1.23914 4.6658 1.25276 4.14865C1.26639 3.63151 1.38694 3.12279 1.60683 2.65452C1.82672 2.18626 2.14118 1.76859 2.53042 1.42783C2.91965 1.08707 3.37523 0.830586 3.86846 0.674542C4.36168 0.518497 4.88188 0.466267 5.39628 0.521141C5.91069 0.576015 6.40816 0.736804 6.85737 0.993384C7.30658 1.24996 7.6978 1.59677 8.0064 2.01198C8.31633 1.59979 8.708 1.25601 9.1569 1.00215C9.6058 0.748295 10.1023 0.589828 10.6152 0.536669C11.1282 0.48351 11.6466 0.536803 12.138 0.693212C12.6295 0.84962 13.0833 1.10578 13.4712 1.44565C13.859 1.78553 14.1726 2.20181 14.3922 2.66843C14.6117 3.13505 14.7327 3.64198 14.7473 4.15748C14.762 4.67298 14.6701 5.18596 14.4774 5.66431C14.2847 6.14266 13.9953 6.57609 13.6274 6.93747" stroke="#E93030" stroke-linecap="round" stroke-linejoin="round"/>
</svg>
