<svg width="16" height="16" viewBox="0 0 16 16" fill="none" xmlns="http://www.w3.org/2000/svg">
<path d="M12.2427 3.09067C13.3443 4.19209 13.9743 5.67875 13.9995 7.23628C14.0248 8.79381 13.4433 10.3001 12.378 11.4367L12.2427 11.5767L9.41404 14.4047C9.05512 14.7634 8.57329 14.9722 8.06614 14.9889C7.55899 15.0056 7.06445 14.8289 6.6827 14.4947L6.5867 14.4047L3.75737 11.576C2.63215 10.4508 2 8.92464 2 7.33333C2 5.74203 2.63215 4.21589 3.75737 3.09067C4.8826 1.96544 6.40873 1.3333 8.00004 1.3333C9.59135 1.3333 11.1175 1.96544 12.2427 3.09067ZM8.00004 5.33333C7.73739 5.33333 7.47732 5.38506 7.23467 5.48557C6.99202 5.58608 6.77154 5.7334 6.58582 5.91912C6.40011 6.10484 6.25279 6.32532 6.15228 6.56797C6.05177 6.81062 6.00004 7.07069 6.00004 7.33333C6.00004 7.59598 6.05177 7.85605 6.15228 8.0987C6.25279 8.34135 6.40011 8.56183 6.58582 8.74755C6.77154 8.93326 6.99202 9.08058 7.23467 9.18109C7.47732 9.2816 7.73739 9.33333 8.00004 9.33333C8.53047 9.33333 9.03918 9.12262 9.41425 8.74755C9.78932 8.37247 10 7.86377 10 7.33333C10 6.8029 9.78932 6.29419 9.41425 5.91912C9.03918 5.54405 8.53047 5.33333 8.00004 5.33333Z" fill="#41B30B"/>
</svg>
