<svg width="136" height="160" viewBox="0 0 136 160" fill="none" xmlns="http://www.w3.org/2000/svg">
<path d="M119.321 20.9289C132.126 33.733 139.45 51.0153 139.744 69.1217C140.038 87.228 133.278 104.739 120.894 117.951L119.321 119.579L86.4377 152.454C82.2653 156.624 76.664 159.052 70.7684 159.246C64.8728 159.44 59.1238 157.386 54.686 153.5L53.5699 152.454L20.6789 119.571C7.5982 106.49 0.249512 88.7489 0.249512 70.2499C0.249512 51.751 7.5982 34.0097 20.6789 20.9289C33.7597 7.8482 51.501 0.499512 69.9999 0.499512C88.4989 0.499512 106.24 7.8482 119.321 20.9289ZM69.9999 46.9999C66.9467 46.9999 63.9234 47.6013 61.1026 48.7697C58.2817 49.9382 55.7187 51.6507 53.5597 53.8097C51.4007 55.9687 49.6882 58.5317 48.5197 61.3525C47.3513 64.1734 46.7499 67.1967 46.7499 70.2499C46.7499 73.3032 47.3513 76.3265 48.5197 79.1473C49.6882 81.9681 51.4007 84.5312 53.5597 86.6902C55.7187 88.8491 58.2817 90.5617 61.1026 91.7301C63.9234 92.8986 66.9467 93.4999 69.9999 93.4999C76.1662 93.4999 82.08 91.0504 86.4402 86.6902C90.8004 82.3299 93.25 76.4162 93.25 70.2499C93.25 64.0837 90.8004 58.1699 86.4402 53.8097C82.08 49.4495 76.1662 46.9999 69.9999 46.9999Z" fill="#41B30B"/>
</svg>
