<svg width="20" height="20" viewBox="0 0 20 20" fill="none" xmlns="http://www.w3.org/2000/svg">
<path d="M10.0002 5C10.0002 5.44203 10.1758 5.86595 10.4883 6.17851C10.8009 6.49107 11.2248 6.66667 11.6668 6.66667C12.1089 6.66667 12.5328 6.49107 12.8453 6.17851C13.1579 5.86595 13.3335 5.44203 13.3335 5M10.0002 5C10.0002 4.55797 10.1758 4.13405 10.4883 3.82149C10.8009 3.50893 11.2248 3.33333 11.6668 3.33333C12.1089 3.33333 12.5328 3.50893 12.8453 3.82149C13.1579 4.13405 13.3335 4.55797 13.3335 5M10.0002 5H3.3335M13.3335 5H16.6668M5.00016 10C5.00016 10.442 5.17576 10.8659 5.48832 11.1785C5.80088 11.4911 6.2248 11.6667 6.66683 11.6667C7.10886 11.6667 7.53278 11.4911 7.84534 11.1785C8.1579 10.8659 8.3335 10.442 8.3335 10M5.00016 10C5.00016 9.55797 5.17576 9.13405 5.48832 8.82149C5.80088 8.50893 6.2248 8.33333 6.66683 8.33333C7.10886 8.33333 7.53278 8.50893 7.84534 8.82149C8.1579 9.13405 8.3335 9.55797 8.3335 10M5.00016 10H3.3335M8.3335 10H16.6668M12.5002 15C12.5002 15.442 12.6758 15.8659 12.9883 16.1785C13.3009 16.4911 13.7248 16.6667 14.1668 16.6667C14.6089 16.6667 15.0328 16.4911 15.3453 16.1785C15.6579 15.8659 15.8335 15.442 15.8335 15M12.5002 15C12.5002 14.558 12.6758 14.134 12.9883 13.8215C13.3009 13.5089 13.7248 13.3333 14.1668 13.3333C14.6089 13.3333 15.0328 13.5089 15.3453 13.8215C15.6579 14.134 15.8335 14.558 15.8335 15M12.5002 15H3.3335M15.8335 15H16.6668" stroke="black" stroke-linecap="round" stroke-linejoin="round"/>
</svg>
