<svg width="16.828613" height="16.828430" viewBox="0 0 16.8286 16.8284" fill="none" xmlns="http://www.w3.org/2000/svg" xmlns:xlink="http://www.w3.org/1999/xlink">
	<desc>
			Created with Pixso.
	</desc>
	<defs/>
	<path id="Vector" d="M4.75 16.07L15.25 5.57C15.51 5.31 15.72 5 15.86 4.66C16 4.31 16.07 3.94 16.07 3.57C16.07 3.2 16 2.83 15.86 2.49C15.72 2.15 15.51 1.84 15.25 1.57C14.98 1.31 14.67 1.1 14.33 0.96C13.98 0.82 13.62 0.75 13.25 0.75C12.87 0.75 12.51 0.82 12.16 0.96C11.82 1.1 11.51 1.31 11.25 1.57L0.75 12.07L0.75 16.07L4.75 16.07ZM10.25 2.57L14.25 6.57" stroke="#000000" stroke-opacity="1.000000" stroke-width="1.500000" stroke-linejoin="round" stroke-linecap="round"/>
</svg>
