<svg width="25" height="24" viewBox="0 0 25 24" fill="none" xmlns="http://www.w3.org/2000/svg">
<path fill-rule="evenodd" clip-rule="evenodd" d="M9 7C9 5.067 10.567 3.5 12.5 3.5C14.433 3.5 16 5.067 16 7C16 8.933 14.433 10.5 12.5 10.5C10.567 10.5 9 8.933 9 7ZM12.5 2.5C10.0147 2.5 8 4.51472 8 7C8 9.48528 10.0147 11.5 12.5 11.5C14.9853 11.5 17 9.48528 17 7C17 4.51472 14.9853 2.5 12.5 2.5ZM12.5 13.5C9.32673 13.5 6.69545 14.6136 5.30719 15.3449C4.44561 15.7987 4 16.7218 4 17.655C4 18.4085 4.28318 19.3326 4.72525 20.0702C5.14998 20.7789 5.83814 21.5 6.73333 21.5H18.2667C19.1619 21.5 19.85 20.7789 20.2747 20.0702C20.7168 19.3326 21 18.4085 21 17.655C21 16.7218 20.5544 15.7987 19.6928 15.3448C18.3045 14.6136 15.6733 13.5 12.5 13.5ZM5.77324 16.2296C7.08482 15.5387 9.55094 14.5 12.5 14.5C15.4491 14.5 17.9152 15.5387 19.2268 16.2296C19.7001 16.4789 20 17.02 20 17.655C20 18.1966 19.7832 18.945 19.417 19.5561C19.0334 20.1962 18.6049 20.5 18.2667 20.5H6.73333C6.39508 20.5 5.96658 20.1962 5.583 19.5561C5.21677 18.945 5 18.1966 5 17.655C5 17.0201 5.29993 16.4789 5.77324 16.2296Z" fill="black"/>
</svg>
