<svg width="24" height="24" viewBox="0 0 24 24" fill="none" xmlns="http://www.w3.org/2000/svg">
<path d="M2 4.66667C2 5.37391 2.28095 6.05219 2.78105 6.55229C3.28115 7.05238 3.95942 7.33333 4.66667 7.33333C5.37391 7.33333 6.05219 7.05238 6.55229 6.55229C7.05238 6.05219 7.33333 5.37391 7.33333 4.66667C7.33333 3.95942 7.05238 3.28115 6.55229 2.78105C6.05219 2.28095 5.37391 2 4.66667 2C3.95942 2 3.28115 2.28095 2.78105 2.78105C2.28095 3.28115 2 3.95942 2 4.66667Z" stroke="black" stroke-width="3" stroke-linecap="round" stroke-linejoin="round"/>
<path d="M7.3335 4.66666H20.0002C21.2378 4.66666 22.4248 5.15832 23.3 6.03349C24.1752 6.90866 24.6668 8.09565 24.6668 9.33332C24.6668 10.571 24.1752 11.758 23.3 12.6332C22.4248 13.5083 21.2378 14 20.0002 14H8.00016C6.76249 14 5.5755 14.4917 4.70033 15.3668C3.82516 16.242 3.3335 17.429 3.3335 18.6667C3.3335 19.9043 3.82516 21.0913 4.70033 21.9665C5.5755 22.8417 6.76249 23.3333 8.00016 23.3333H26.0002" stroke="black" stroke-width="3" stroke-linecap="round" stroke-linejoin="round"/>
<path d="M22 19.3333L26 23.3333L22 27.3333" stroke="black" stroke-width="3" stroke-linecap="round" stroke-linejoin="round"/>
</svg>
