<svg width="25" height="24" viewBox="0 0 25 24" stroke="black" fill="none" xmlns="http://www.w3.org/2000/svg">
<path d="M3.5 5C3.5 5.53043 3.71071 6.03914 4.08579 6.41421C4.46086 6.78929 4.96957 7 5.5 7C6.03043 7 6.53914 6.78929 6.91421 6.41421C7.28929 6.03914 7.5 5.53043 7.5 5C7.5 4.46957 7.28929 3.96086 6.91421 3.58579C6.53914 3.21071 6.03043 3 5.5 3C4.96957 3 4.46086 3.21071 4.08579 3.58579C3.71071 3.96086 3.5 4.46957 3.5 5Z" stroke-linecap="round" stroke-linejoin="round"/>
<path d="M7.5 5H17C17.9283 5 18.8185 5.36875 19.4749 6.02513C20.1313 6.6815 20.5 7.57174 20.5 8.5C20.5 9.42826 20.1313 10.3185 19.4749 10.9749C18.8185 11.6313 17.9283 12 17 12H8C7.07174 12 6.1815 12.3687 5.52513 13.0251C4.86875 13.6815 4.5 14.5717 4.5 15.5C4.5 16.4283 4.86875 17.3185 5.52513 17.9749C6.1815 18.6313 7.07174 19 8 19H21.5" stroke-linecap="round" stroke-linejoin="round"/>
<path d="M18.5 16L21.5 19L18.5 22" stroke-linecap="round" stroke-linejoin="round"/>
</svg>
