<svg width="16" height="16" viewBox="0 0 16 16" fill="none" xmlns="http://www.w3.org/2000/svg">
<path d="M2.6665 11.3333L5.99984 12L6.49984 11M9.99984 14V11.3333L7.33317 9.33333L7.99984 5.33333M7.99984 2.66667C7.99984 2.84348 8.07008 3.01305 8.1951 3.13807C8.32012 3.2631 8.48969 3.33333 8.6665 3.33333C8.84332 3.33333 9.01288 3.2631 9.13791 3.13807C9.26293 3.01305 9.33317 2.84348 9.33317 2.66667C9.33317 2.48986 9.26293 2.32029 9.13791 2.19526C9.01288 2.07024 8.84332 2 8.6665 2C8.48969 2 8.32012 2.07024 8.1951 2.19526C8.07008 2.32029 7.99984 2.48986 7.99984 2.66667Z" stroke="#41B30B" stroke-width="1.5" stroke-linecap="round" stroke-linejoin="round"/>
<path d="M4.6665 7.99998V5.99998L7.99984 5.33331L9.99984 7.33331L11.9998 7.99998" stroke="#41B30B" stroke-width="1.5" stroke-linecap="round" stroke-linejoin="round"/>
</svg>
